<svg xmlns="http://www.w3.org/2000/svg" width="20" height="20" viewBox="0 0 48 48">
  <path fill="#EA4335" d="M24 9.5c3.54 0 6.71 1.22 9.21 3.6l6.85-6.85C35.9 2.36 30.41 0 24 0 14.63 0 6.43 5.92 2.56 14.44l7.98 6.19C12.28 14.51 17.7 9.5 24 9.5z"/>
  <path fill="#4285F4" d="M46.1 24.55c0-1.57-.14-3.09-.39-4.55H24v9.02h12.35c-.53 2.84-2.12 5.25-4.53 6.87l7.08 5.51c4.13-3.81 6.5-9.43 6.5-16.85z"/>
  <path fill="#FBBC05" d="M10.53 28.64c-1.2-3.56-1.2-7.42 0-10.98L2.56 11.47C-.85 17.61-.85 30.39 2.56 36.53l7.97-7.89z"/>
  <path fill="#34A853" d="M24 48c6.48 0 11.91-2.14 15.88-5.8l-7.08-5.51c-2.01 1.34-4.6 2.13-8.8 2.13-6.3 0-11.72-5.01-13.47-11.82l-7.97 7.89C6.43 42.08 14.63 48 24 48z"/>
</svg>
