<svg
  xmlns="http://www.w3.org/2000/svg"
  width="20"
  height="20"
  viewBox="0 0 48 48"
  fill="black"

>
   <path d="M33.63 24.33c.06 6.04 5.28 8.05 5.34 8.08-.04.13-.83 2.83-2.73 5.6-1.65 2.41-3.36 4.8-6.05 4.85-2.65.05-3.5-1.56-6.54-1.56-3.05 0-4.02 1.51-6.56 1.61-2.63.1-4.62-2.6-6.3-5-3.43-5-6.07-14.12-2.54-20.27 1.76-3.06 4.9-5 8.29-5.06 2.6-.05 5.06 1.76 6.54 1.76 1.46 0 4.5-2.18 7.6-1.85 1.3.05 4.96.53 7.32 3.99-0.19.12-4.31 2.56-4.27 7.85zM27.72 9.22c1.4-1.71 2.34-4.1 2.08-6.49-2.01.08-4.43 1.33-5.87 3.02-1.29 1.49-2.43 3.94-2.13 6.26 2.24.17 4.53-1.14 5.92-2.79z"/>
    </svg>